<svg width="24" height="24" viewBox="0 0 24 24" fill="none" xmlns="http://www.w3.org/2000/svg">
    <path d="M5.982 16.15h2.85V18a1 1 0 0 1-1 1h-.85a1 1 0 0 1-1-1v-1.85zM14.531 16.15h2.85V18a1 1 0 0 1-1 1h-.85a1 1 0 0 1-1-1v-1.85zM7.901 15.157a.928.928 0 1 0 0-1.856.928.928 0 0 0 0 1.856zM15.83 15.157a.928.928 0 1 0 0-1.856.928.928 0 0 0 0 1.856z" fill="#28323C"/>
    <path d="M6.973 5v-.5h-.296l-.142.26.438.24zM4 10.451l-.439-.239-.061.112v.127H4zM16.885 5l.44-.24-.143-.26h-.297V5zm2.974 5.451h.5v-.127l-.061-.112-.44.24zm0 5.947v.5h.5v-.5h-.5zM4 16.398h-.5v.5H4v-.5zm2.478-5.947-.434-.248-.428.748h.862v-.5zm10.903 0v.5h.861l-.427-.748-.434.248zm-1.983-3.469.435-.248-.144-.252h-.29v.5zm-6.938 0v-.5h-.29l-.144.252.434.248zM6.535 4.761 3.56 10.212l.878.479 2.973-5.452-.877-.478zm10.35-.261H6.973v1h9.912v-1zm3.413 5.712-2.974-5.451-.878.478 2.974 5.452.878-.479zm-.94.24v5.946h1v-5.947h-1zm.5 5.446H4v1h15.859v-1zm-15.358.5v-5.947h-1v5.947h1zm1.978-5.447H17.38v-1H6.478v1zm8.486-3.72 1.983 3.469.868-.497-1.982-3.469-.869.496zm-6.504.251h6.938v-1H8.46v1zM6.912 10.7l1.982-3.47-.868-.496-1.982 3.47.868.495z" fill="#28323C"/>
</svg>
